. 
 
http://www.torrenting.com          :     Once & For all ;)


               www . Torrenting . Com 

(((((((((((((= Enjoy No RAR releases =))))))))))))))))))))


...................................NFO:....................................

.                                                                                                     
       
     
     
       
       
     
     
                                         
                                         
                EXVID                    
                                         
         
                                         
         Filled the Archives             
                                         
         
                                         
                With:                    
                                         
         
                                         
                                    
     E240                           
                                    
     SP               (C) 2009      
                                         
     
     
     
                                                                                  
                                                                                   
               The.Musketeer.2001.iNTERNAL.DVDRip.XviD-EXViDiNT                     
                                                                                   
                                                                                  
     
                                                                                               
EXViD aims to iNTERNAL those releases which have been lost in the archives.
EXViD aims to PRE non-internal releases which have poor sources and are likely skipped by others. 
http://www.imdb.com/title/tt0246544/
Subtitles: NL
Date: 2012.01

Director: Peter Hyams

Genres: Action | Drama | Adventure | Romance

Plot:
In 17th century Paris, a dashing swordsman named D'Artagnan finds himself at odds with the
powerful forces taking over France. He sets out to avenge the murder of his parents and finds his
country cleaved by chaos and civil unrest. His heart softens only for Francesca, a fiery peasant
girl who claims D'Artagnan's heart on sight.

Cast:
Catherine Deneuve	...	The Queen
Mena Suvari	...	Francesca Bonacieux
Stephen Rea	...	Cardinal Richelieu
Tim Roth	...	Febre the Man in Black
Justin Chambers	...	D'Artagnan
Bill Treacher	...	Bonacieux
Daniel Mesguich	...	King Louis XIII
David Schofield	...	Aramis
Nick Moran	...	Porthos
Steve Speirs	...	Athos
Jan Gregor Kremp	...	Lord Buckingham
Jeremy Clyde	...	Planchet
Michael Byrne	...	Madame Lacross
Jean-Pierre Castaldi	...	D'Artagnan's Father
Tsilla Chelton	...	D'Artagnan's Mother

Stats:
Format                                   : AVI
Format/Info                              : Audio Video Interleave
Format profile                           : OpenDML
File size                                : 1.36 GiB
Duration                                 : 1h 39mn
Overall bit rate                         : 1 958 Kbps

Video
ID                                       : 0
Format                                   : MPEG-4 Visual
Format profile                           : Advanced Simple@L5
Format settings, BVOP                    : 2
Format settings, QPel                    : No
Format settings, GMC                     : No warppoints
Format settings, Matrix                  : Default (MPEG)
Codec ID                                 : XVID
Codec ID/Hint                            : XviD
Duration                                 : 1h 39mn
Bit rate                                 : 1 504 Kbps
Width                                    : 640 pixels
Height                                   : 272 pixels
Display aspect ratio                     : 2.35:1
Frame rate                               : 25.000 fps
Color space                              : YUV
Chroma subsampling                       : 4:2:0
Bit depth                                : 8 bits
Scan type                                : Progressive
Compression mode                         : Lossy
Bits/(Pixel*Frame)                       : 0.346
Stream size                              : 1.05 GiB (77%)
Writing library                          : XviD 64

Audio
ID                                       : 1
Format                                   : AC-3
Format/Info                              : Audio Coding 3
Mode extension                           : CM (complete main)
Codec ID                                 : 2000
Duration                                 : 1h 39mn
Bit rate mode                            : Constant
Bit rate                                 : 448 Kbps
Channel(s)                               : 6 channels
Channel positions                        : Front: L C R, Side: L R, LFE
Sampling rate                            : 48.0 KHz
Bit depth                                : 16 bits
Compression mode                         : Lossy
Delay relative to video                  : 40ms
Stream size                              : 320 MiB (23%)
Alignment                                : Split accross interleaves
Interleave, duration                     : 500 ms (12.50 video frames)
Interleave, preload duration             : 500 ms



Release notes:
Enjoy!

Looking for:
75TB+ Archives
DUTCH/FLEMiSH Archives
                                                                                                    
Greets: CRBS EPiSODE FiCO FLS iLS KLASSiGER LiPSYNC MADE NODLABS RUNNER SPRiNTER      
   

                                                                    ASCII DONE BY XX^NFO 2oo9     
 

RLS-Crc: 415243414445:42EECD90